Coordinates
version=1
nRows=20
nColumns=38
inDegrees=no

Units are S.I. units (second, meters, Newtons, ...)
If the header above contains a line with 'inDegrees', this indicates whether rotational values are in degrees (yes) or radians (no).

endheader
time	pelvis_tilt	pelvis_list	pelvis_rotation	pelvis_tx	pelvis_ty	pelvis_tz	hip_flexion_r	hip_adduction_r	hip_rotation_r	knee_angle_r	ankle_angle_r	subtalar_angle_r	mtp_angle_r	hip_flexion_l	hip_adduction_l	hip_rotation_l	knee_angle_l	ankle_angle_l	subtalar_angle_l	mtp_angle_l	lumbar_extension	lumbar_bending	lumbar_rotation	arm_flex_r	arm_add_r	arm_rot_r	elbow_flex_r	pro_sup_r	wrist_flex_r	wrist_dev_r	arm_flex_l	arm_add_l	arm_rot_l	elbow_flex_l	pro_sup_l	wrist_flex_l	wrist_dev_l
0	0.154829	1.14086	-1.53614	0.461016	1.60166	1.11473	-0.272453	0.0349317	-0.185005	0.457526	-0.191946	0	0	-0.0111945	-0.182449	-0.112928	1.20576	-0.384493	0	0	-0.530434	0.0738104	-0.130921	0.656367	-0.494229	0.731386	1.10053	0.497888	0	0	0.393701	-0.544526	0.252875	1.0821	0.626933	0	0
0.01	0.16116	1.14291	-1.54041	0.462661	1.59255	1.11512	-0.279788	0.0329815	-0.186659	0.460852	-0.183026	0	0	0.00739527	-0.172972	-0.112242	1.17524	-0.380023	0	0	-0.528979	0.0693652	-0.128342	0.650925	-0.494195	0.7195	1.10012	0.502782	0	0	0.404145	-0.542322	0.260962	1.07657	0.627355	0	0
0.02	0.166535	1.14523	-1.54584	0.464326	1.58247	1.11549	-0.289057	0.030888	-0.187037	0.460541	-0.176014	0	0	0.0210534	-0.164586	-0.115824	1.1373	-0.374854	0	0	-0.526819	0.0653463	-0.127977	0.647882	-0.492425	0.713215	1.09947	0.50695	0	0	0.406077	-0.542205	0.261657	1.07667	0.627507	0	0
0.03	0.171186	1.14783	-1.55089	0.466092	1.57219	1.11569	-0.298481	0.0291002	-0.186744	0.459426	-0.168838	0	0	0.0321085	-0.155997	-0.11804	1.09396	-0.369953	0	0	-0.524324	0.0618854	-0.128271	0.645724	-0.49062	0.708842	1.09915	0.510757	0	0	0.406174	-0.542797	0.26101	1.07811	0.627626	0	0
0.04	0.175516	1.15077	-1.55574	0.467971	1.56188	1.11568	-0.307161	0.0272444	-0.186771	0.459092	-0.161702	0	0	0.0413758	-0.146768	-0.118195	1.04639	-0.367003	0	0	-0.521451	0.0589321	-0.128557	0.644014	-0.489195	0.705237	1.09916	0.514344	0	0	0.405985	-0.543543	0.26025	1.07954	0.629024	0	0
0.05	0.179064	1.15395	-1.55994	0.469941	1.55159	1.11546	-0.315161	0.0255327	-0.186512	0.459358	-0.155708	0	0	0.049239	-0.137247	-0.116278	0.996038	-0.366297	0	0	-0.518166	0.0564134	-0.128436	0.641839	-0.488451	0.701155	1.10006	0.518691	0	0	0.406086	-0.543733	0.259487	1.08057	0.629873	0	0
0.06	0.181764	1.15739	-1.56335	0.472016	1.54133	1.11501	-0.322603	0.0240641	-0.185717	0.460093	-0.149531	0	0	0.0558057	-0.127674	-0.112491	0.943668	-0.366093	0	0	-0.514478	0.0545552	-0.128754	0.641872	-0.488815	0.701616	1.10109	0.515182	0	0	0.405449	-0.543725	0.257492	1.08179	0.630406	0	0
0.07	0.182983	1.16125	-1.56543	0.474137	1.53103	1.11434	-0.329246	0.0231498	-0.184501	0.461468	-0.142446	0	0	0.0613272	-0.118786	-0.107629	0.890041	-0.364865	0	0	-0.510546	0.0532597	-0.128893	0.641503	-0.488926	0.700879	1.10241	0.513913	0	0	0.404732	-0.544221	0.255933	1.08368	0.631171	0	0
0.08	0.183766	1.16499	-1.56709	0.476289	1.52077	1.11353	-0.33571	0.0223359	-0.184185	0.463575	-0.13412	0	0	0.0650972	-0.11032	-0.10214	0.83487	-0.362089	0	0	-0.506953	0.0521943	-0.12902	0.64123	-0.488804	0.699617	1.10376	0.513654	0	0	0.403968	-0.544642	0.253649	1.08589	0.632389	0	0
0.09	0.183754	1.16891	-1.56811	0.478492	1.51052	1.11252	-0.341696	0.0215757	-0.184362	0.466444	-0.12549	0	0	0.0675799	-0.102602	-0.0967105	0.77896	-0.357541	0	0	-0.503286	0.0514888	-0.129167	0.641233	-0.488676	0.698558	1.10526	0.514192	0	0	0.402973	-0.545075	0.250916	1.08836	0.634304	0	0
0.1	0.182959	1.17295	-1.56835	0.480801	1.50032	1.11134	-0.347121	0.0203325	-0.185676	0.469864	-0.116476	0	0	0.0685469	-0.0953407	-0.0899689	0.72165	-0.350793	0	0	-0.499784	0.0512233	-0.129459	0.641515	-0.48847	0.69734	1.10686	0.515014	0	0	0.402039	-0.545535	0.248142	1.09091	0.636565	0	0
0.11	0.181334	1.17737	-1.5679	0.483197	1.49009	1.10998	-0.351923	0.0192084	-0.187464	0.473788	-0.10814	0	0	0.0688404	-0.0891617	-0.0830857	0.66422	-0.340564	0	0	-0.496043	0.0513179	-0.129604	0.641949	-0.488265	0.69593	1.10846	0.516189	0	0	0.40086	-0.545819	0.244938	1.09379	0.636695	0	0
0.12	0.179281	1.18201	-1.56675	0.485713	1.47988	1.10846	-0.356166	0.0180434	-0.190649	0.478729	-0.0977726	0	0	0.0683472	-0.0836184	-0.0743621	0.605971	-0.323918	0	0	-0.492276	0.051725	-0.129448	0.639426	-0.486572	0.687689	1.11036	0.528206	0	0	0.399864	-0.54344	0.238973	1.09626	0.636545	0	0
0.13	0.175565	1.18613	-1.56382	0.488308	1.46969	1.1068	-0.360806	0.0174702	-0.19478	0.483619	-0.0916299	0	0	0.0671224	-0.0800865	-0.0668502	0.548722	-0.312904	0	0	-0.489064	0.0528348	-0.129761	0.641807	-0.487579	0.689515	1.11204	0.524811	0	0	0.399547	-0.545548	0.239259	1.09878	0.642107	0	0
0.14	0.170642	1.1907	-1.55927	0.491055	1.45946	1.10493	-0.364576	0.0170233	-0.200066	0.489666	-0.0842696	0	0	0.065624	-0.0776292	-0.0580781	0.491955	-0.299452	0	0	-0.485232	0.0547484	-0.130432	0.643365	-0.488042	0.68944	1.11374	0.5238	0	0	0.398223	-0.542721	0.232288	1.10107	0.64156	0	0
0.15	0.164969	1.19554	-1.55356	0.493973	1.44916	1.10291	-0.36764	0.016558	-0.206636	0.496694	-0.0768408	0	0	0.0645248	-0.0763468	-0.0505638	0.438788	-0.284478	0	0	-0.480788	0.0571797	-0.131608	0.644485	-0.48809	0.688451	1.11522	0.523879	0	0	0.396945	-0.541293	0.227175	1.10296	0.642423	0	0
0.16	0.159519	1.20016	-1.54807	0.497018	1.43878	1.10082	-0.370602	0.0155473	-0.213895	0.504647	-0.0695026	0	0	0.063554	-0.0756211	-0.0455071	0.390373	-0.268388	0	0	-0.476468	0.0595548	-0.132978	0.646064	-0.488057	0.688097	1.11613	0.52465	0	0	0.396058	-0.540839	0.223779	1.10449	0.644801	0	0
0.17	0.15499	1.20421	-1.54354	0.500178	1.42837	1.09876	-0.374133	0.0137172	-0.220907	0.513075	-0.06253	0	0	0.0621153	-0.0747675	-0.0421439	0.346131	-0.252506	0	0	-0.472704	0.0615901	-0.134623	0.648133	-0.487717	0.688168	1.11636	0.526241	0	0	0.395417	-0.540491	0.220982	1.10583	0.645996	0	0
0.18	0.150501	1.208	-1.5391	0.503392	1.41785	1.09664	-0.377796	0.0118208	-0.227662	0.521931	-0.0560309	0	0	0.0607426	-0.074681	-0.0391936	0.307585	-0.238354	0	0	-0.469039	0.0634805	-0.136433	0.65033	-0.486867	0.688326	1.11589	0.528366	0	0	0.394846	-0.540571	0.218821	1.10714	0.647071	0	0
0.19	0.146434	1.21179	-1.53503	0.506625	1.40725	1.09448	-0.381079	0.00983773	-0.234132	0.531604	-0.0483357	0	0	0.0576312	-0.0743126	-0.030658	0.270466	-0.227196	0	0	-0.465111	0.0648588	-0.137999	0.649479	-0.483736	0.681972	1.11449	0.540949	0	0	0.394632	-0.54015	0.21663	1.10797	0.648776	0	0
